<svg width="96" height="56" viewBox="0 0 96 56" fill="none" xmlns="http://www.w3.org/2000/svg">
<g clip-path="url(#clip0_3075_93)">
<path d="M37.5846 0.0078125V15.8871C38.7875 14.0084 40.4253 12.4471 42.3593 11.3353C44.3485 10.187 46.6104 9.59602 48.907 9.62454C50.8641 9.60858 52.8001 10.0301 54.5734 10.8584C56.2979 11.6638 57.8452 12.8039 59.1252 14.2126C61.1663 16.5176 62.5326 19.3406 63.074 22.3715C63.6155 25.4024 63.311 28.5239 62.1942 31.3931C61.4834 33.213 60.443 34.8861 59.1252 36.3285C57.8381 37.7199 56.292 38.8469 54.5734 39.6464C52.8001 40.4746 50.8641 40.8962 48.907 40.8802C46.6148 40.9109 44.3554 40.3331 42.3593 39.2057C40.4232 38.1081 38.7842 36.5545 37.5846 34.6799V40.7558H32.2656V0.0078125H37.5846ZM58.0209 25.312C58.0259 23.9434 57.7562 22.5878 57.2277 21.3253C56.7235 20.0953 55.9818 18.9767 55.0452 18.0333C54.1105 17.1 53.0099 16.3493 51.7998 15.8197C50.556 15.2846 49.217 15.006 47.863 15.0007C46.509 14.9954 45.1678 15.2633 43.9198 15.7886C41.5051 16.8175 39.5631 18.7132 38.4763 21.1024C37.9303 22.308 37.6306 23.6105 37.595 24.9335V25.312C37.5867 26.6703 37.8548 28.0161 38.383 29.2676C39.1671 31.1246 40.4848 32.7071 42.1691 33.8146C43.8534 34.9221 45.8285 35.5047 47.8442 35.4886C49.1828 35.4904 50.5085 35.2286 51.7459 34.718C52.9832 34.2074 54.1078 33.4581 55.0555 32.5129C55.987 31.5792 56.7283 30.4735 57.2381 29.2572C57.763 28.0085 58.0293 26.6664 58.0209 25.312Z" fill="#F1F1F1"/>
<path d="M91.4936 20.7385C90.4549 19.1139 89.0989 17.7156 87.5069 16.6275C85.8876 15.5869 83.9928 15.0576 82.0686 15.1085C80.7001 15.1035 79.3444 15.3732 78.082 15.9017C76.8509 16.404 75.7319 17.1458 74.79 18.0842C73.8556 19.022 73.1048 20.1262 72.5763 21.3399C72.0326 22.5878 71.7519 23.9343 71.7519 25.2955C71.7519 26.6566 72.0326 28.0032 72.5763 29.251C73.1048 30.4648 73.8556 31.569 74.79 32.5067C75.7319 33.4451 76.8509 34.187 78.082 34.6893C79.3444 35.2177 80.7001 35.4874 82.0686 35.4825C83.9545 35.4966 85.8064 34.9811 87.4136 33.9946C89.0948 32.9429 90.495 31.4982 91.4936 29.785L95.3559 33.5228C93.9927 35.8625 91.9961 37.7693 89.5962 39.0233C87.2731 40.2368 84.6896 40.8667 82.0686 40.8585C79.9592 40.877 77.869 40.4568 75.9305 39.6246C74.0892 38.8428 72.4141 37.7167 70.9951 36.3068C68.0972 33.3768 66.4806 29.4164 66.5004 25.2955C66.4857 23.1979 66.8948 21.1189 67.7031 19.1833C68.4643 17.3372 69.5831 15.6599 70.9951 14.2479C72.4071 12.8359 74.0844 11.7171 75.9305 10.9559C77.8752 10.1479 79.9629 9.74055 82.0686 9.75837C84.6527 9.74239 87.2026 10.3488 89.5028 11.5262C91.8808 12.7826 93.8948 14.6306 95.3507 16.8918L91.4936 20.7385Z" fill="#F1F1F1"/>
<path d="M25.6915 29.9916L29.3204 33.4702C27.8084 35.8468 25.7037 37.7889 23.2134 39.1054C20.8467 40.2888 18.2333 40.8946 15.5874 40.8733C13.5008 40.8857 11.4341 40.4675 9.51663 39.6446C5.79201 38.0716 2.82877 35.1065 1.25815 31.3809C0.430621 29.4647 0.0104482 27.3974 0.0242954 25.3102C0.00198588 23.2075 0.415021 21.123 1.23741 19.1876C2.02488 17.339 3.15206 15.6543 4.5605 14.2212C5.97278 12.7939 7.64899 11.6547 9.4959 10.867C11.4123 10.04 13.4795 9.61987 15.5666 9.63312C18.2749 9.62012 20.9451 10.2716 23.343 11.5305C25.9043 12.9287 28.0696 14.953 29.6366 17.4146L17.5418 28.4726L14.5816 25.7198L22.5498 17.9849C21.6693 16.9577 20.5642 16.1471 19.32 15.6157C17.931 14.9943 16.4111 14.722 14.8927 14.8225C13.626 14.8958 12.3828 15.1961 11.2222 15.709C10.1002 16.208 9.08056 16.9112 8.21539 17.7827C7.34037 18.6409 6.61805 19.642 6.07949 20.7429C5.51444 21.9155 5.16332 23.1795 5.04264 24.4755C4.91301 25.9819 5.12934 27.498 5.67512 28.9081C7.53626 33.6775 12.1865 35.2432 13.7781 35.4557C14.7809 35.6159 15.8001 35.6472 16.8109 35.549C18.584 35.3414 20.2843 34.7237 21.7773 33.7449C23.3186 32.7664 24.6492 31.4904 25.6915 29.9916Z" fill="#F1F1F1"/>
<path d="M57.8113 45.8407C58.4308 46.2976 58.8724 46.9555 59.0607 47.7018H57.9876C57.8051 47.2297 57.4786 46.8271 57.0544 46.5509C56.5921 46.2515 56.0497 46.0996 55.4992 46.1154C54.9955 46.1077 54.4992 46.2367 54.0631 46.4887C53.635 46.7426 53.288 47.113 53.0626 47.5566C52.8124 48.0621 52.6879 48.6206 52.6997 49.1845C52.6861 49.7591 52.8124 50.3285 53.0677 50.8435C53.3035 51.2917 53.6635 51.6625 54.1046 51.9114C54.5641 52.1661 55.0827 52.2949 55.608 52.2847C56.069 52.2894 56.5243 52.1827 56.9352 51.9736C57.3373 51.7627 57.677 51.4498 57.9202 51.0664C58.1854 50.6442 58.3438 50.1638 58.3816 49.6666H55.271V48.8942H59.2214V49.8325C59.1633 50.4353 58.9644 51.0159 58.6408 51.5278C58.3201 52.0335 57.8758 52.4493 57.3499 52.7357C56.7789 53.0387 56.1403 53.1921 55.494 53.1815C54.7908 53.1916 54.0979 53.0126 53.4877 52.6631C52.9117 52.3267 52.4426 51.8343 52.1346 51.2427C51.8148 50.5981 51.6484 49.8884 51.6484 49.169C51.6484 48.4495 51.8148 47.7398 52.1346 47.0953C52.4425 46.5022 52.9115 46.0081 53.4877 45.6696C54.0935 45.3186 54.7835 45.1394 55.4836 45.1512C56.3141 45.1196 57.132 45.3618 57.8113 45.8407Z" fill="#F1F1F1"/>
<path d="M62.5146 47.2288C62.9317 46.9834 63.4099 46.8611 63.8936 46.8763V47.9805H63.5826C63.0771 47.958 62.5798 48.114 62.1776 48.4212C61.9853 48.6081 61.8381 48.8365 61.7474 49.089C61.6566 49.3414 61.6247 49.6113 61.654 49.8779V53.1025H60.6172V46.9748H61.654V48.219C61.8334 47.809 62.1337 47.4636 62.5146 47.2288Z" fill="#F1F1F1"/>
<path d="M68.9107 47.3462C69.3187 47.6415 69.622 48.0592 69.7765 48.5386V46.9833H70.7874V53.111H69.7765V51.5558C69.622 52.0366 69.3188 52.4559 68.9107 52.7533C68.4662 53.0589 67.936 53.215 67.3969 53.1992C66.887 53.2066 66.3849 53.0739 65.9453 52.8155C65.517 52.5567 65.1716 52.1808 64.9499 51.7321C64.6979 51.2124 64.5735 50.6401 64.5871 50.0627C64.5726 49.4836 64.6971 48.9094 64.9499 48.3882C65.1712 47.9365 65.5164 47.5571 65.9453 47.2944C66.3854 47.0378 66.8875 46.9069 67.3969 46.9159C67.9343 46.8955 68.4644 47.0461 68.9107 47.3462ZM66.189 48.383C65.8228 48.8536 65.624 49.4328 65.624 50.029C65.624 50.6253 65.8228 51.2045 66.189 51.675C66.3819 51.8752 66.6154 52.032 66.8738 52.1348C67.1321 52.2376 67.4095 52.2841 67.6872 52.2712C68.065 52.2796 68.4379 52.1846 68.7656 51.9965C69.0812 51.8079 69.3379 51.535 69.5069 51.2084C69.6912 50.844 69.7837 50.44 69.7765 50.0316C69.7831 49.6217 69.6906 49.2162 69.5069 48.8496C69.3408 48.5211 69.0833 48.2475 68.7656 48.0616C68.4369 47.8759 68.0647 47.781 67.6872 47.7868C67.4102 47.7787 67.1345 47.829 66.8782 47.9344C66.6219 48.0398 66.3906 48.198 66.1994 48.3986L66.189 48.383Z" fill="#F1F1F1"/>
<path d="M77.2431 47.2754C77.6746 47.5364 78.022 47.9162 78.2436 48.3692C78.4937 48.8914 78.618 49.4649 78.6065 50.0438C78.6185 50.621 78.4942 51.1929 78.2436 51.7131C78.0221 52.1635 77.6745 52.5399 77.2431 52.7966C76.8037 53.0555 76.3014 53.1882 75.7915 53.1802C75.2523 53.1971 74.7223 53.0369 74.2829 52.724C73.8748 52.4332 73.5741 52.0159 73.4275 51.5368V55.9953H72.3906V46.9747H73.4275V48.53C73.5755 48.0515 73.8759 47.6347 74.2829 47.3428C74.724 47.0338 75.2531 46.8756 75.7915 46.8918C76.3014 46.8835 76.8038 47.0162 77.2431 47.2754ZM74.4332 48.0737C74.1116 48.2564 73.8517 48.5307 73.6867 48.8618C73.5005 49.2274 73.4079 49.6335 73.4171 50.0438C73.4073 50.4524 73.4999 50.857 73.6867 51.2206C73.8545 51.5496 74.1137 51.8233 74.4332 52.0086C74.7594 52.1958 75.1303 52.2908 75.5064 52.2834C75.7857 52.2968 76.0648 52.2505 76.3249 52.1477C76.585 52.0449 76.8202 51.8879 77.015 51.6872C77.3811 51.2166 77.5799 50.6374 77.5799 50.0412C77.5799 49.4449 77.3811 48.8657 77.015 48.3952C76.8194 48.1955 76.584 48.0392 76.3241 47.9364C76.0642 47.8337 75.7856 47.7869 75.5064 47.799C75.1307 47.7944 74.7604 47.8891 74.4332 48.0737Z" fill="#F1F1F1"/>
<path d="M84.8882 47.5603C85.36 48.1078 85.5967 48.8196 85.5466 49.5407V53.1022H84.5097V49.6288C84.5433 49.1176 84.3759 48.6134 84.0431 48.2239C83.88 48.0527 83.6825 47.918 83.4636 47.8286C83.2447 47.7393 83.0093 47.6973 82.773 47.7055C82.5232 47.6945 82.274 47.7375 82.0424 47.8314C81.8107 47.9253 81.6019 48.068 81.4303 48.2498C81.0676 48.6843 80.8824 49.2398 80.9118 49.8051V53.0556H79.875V44.8438H80.9118V48.4261C81.0444 47.9569 81.3381 47.5493 81.7413 47.2752C82.1503 47.0063 82.631 46.8672 83.1203 46.876C83.4468 46.857 83.7736 46.9082 84.0785 47.0263C84.3835 47.1443 84.6596 47.3264 84.8882 47.5603Z" fill="#F1F1F1"/>
<path d="M87.121 44.7309C87.2628 44.6168 87.4393 44.5547 87.6213 44.5547C87.8033 44.5547 87.9798 44.6168 88.1216 44.7309C88.1821 44.7894 88.2302 44.8594 88.2631 44.9369C88.296 45.0144 88.3129 45.0977 88.3129 45.1819C88.3129 45.2661 88.296 45.3494 88.2631 45.4269C88.2302 45.5044 88.1821 45.5744 88.1216 45.6329C87.9782 45.7435 87.8023 45.8034 87.6213 45.8034C87.4403 45.8034 87.2643 45.7435 87.121 45.6329C87.0605 45.5744 87.0124 45.5044 86.9795 45.4269C86.9466 45.3494 86.9297 45.2661 86.9297 45.1819C86.9297 45.0977 86.9466 45.0144 86.9795 44.9369C87.0124 44.8594 87.0605 44.7894 87.121 44.7309ZM88.1216 46.9756V53.1034H87.0847V46.9756H88.1216Z" fill="#F1F1F1"/>
<path d="M94.4025 47.5253C94.9167 47.9432 95.2553 48.539 95.3512 49.1947H94.278C94.2507 48.9903 94.183 48.7934 94.0789 48.6154C93.9748 48.4373 93.8363 48.2818 93.6715 48.1578C93.3128 47.9004 92.8789 47.7691 92.4376 47.7846C92.0965 47.7801 91.7602 47.866 91.463 48.0334C91.1572 48.2083 90.9101 48.4699 90.7528 48.7851C90.575 49.1795 90.4831 49.6071 90.4831 50.0397C90.4831 50.4723 90.575 50.8999 90.7528 51.2943C90.9101 51.6095 91.1572 51.8711 91.463 52.046C91.7602 52.2135 92.0965 52.2993 92.4376 52.2948C92.8804 52.3093 93.315 52.1742 93.6715 51.9112C93.8363 51.7872 93.9748 51.6317 94.0789 51.4537C94.183 51.2757 94.2507 51.0788 94.278 50.8744H95.346C95.2576 51.5355 94.9178 52.1371 94.3973 52.5541C93.8422 52.9829 93.1541 53.2031 92.4532 53.1762C91.9104 53.1844 91.3747 53.0522 90.8979 52.7925C90.4454 52.543 90.0759 52.1663 89.8351 51.709C89.566 51.1946 89.4322 50.6201 89.4463 50.0397C89.4329 49.4577 89.5666 48.8818 89.8351 48.3652C90.0755 47.905 90.4448 47.5249 90.8979 47.2713C91.3751 47.0132 91.9108 46.8829 92.4532 46.8929C93.1575 46.8654 93.8485 47.0896 94.4025 47.5253Z" fill="#F1F1F1"/>
<path d="M44.2852 48.2201H44.2437C43.7771 48.3549 43.3157 48.5053 42.8543 48.6504L42.1752 48.8734L41.833 48.9874L41.4857 49.0859L40.1119 49.4851L39.4327 49.6925L38.7432 49.8687L37.3746 50.2264C36.9184 50.3405 36.4518 50.4286 35.9956 50.5375C35.0883 50.7656 34.1552 50.9004 33.2428 51.087C33.0146 51.1337 32.7814 51.1648 32.5533 51.1907L31.8586 51.2944C31.3972 51.3566 30.941 51.4447 30.4796 51.4759L29.0954 51.6262C28.8621 51.6573 28.634 51.6573 28.4007 51.6728L27.706 51.7195L27.0165 51.7713H26.3218C25.8552 51.7713 25.3938 51.8076 24.9324 51.8024H23.5431C23.0817 51.8024 22.6203 51.761 22.1589 51.7454L21.4642 51.7091L20.7747 51.6417C20.3133 51.6002 19.8467 51.5744 19.3905 51.507C18.9343 51.4396 18.4677 51.3981 18.0063 51.3255L16.6325 51.1078C14.7942 50.7788 12.9753 50.3496 11.1838 49.8221C9.37162 49.2945 7.58912 48.6697 5.84406 47.9506C4.96274 47.5928 4.09698 47.1989 3.25195 46.7997C2.81647 46.6027 2.39137 46.3849 1.96626 46.1672C1.54115 45.9494 1.11085 45.7213 0.706484 45.5036C0.612972 45.4595 0.507025 45.4492 0.406778 45.4746C0.306531 45.4999 0.218221 45.5594 0.156964 45.6427C0.0957062 45.726 0.065311 45.828 0.0709843 45.9313C0.0766577 46.0345 0.118044 46.1326 0.18806 46.2087C0.890955 46.9224 1.64465 47.5842 2.44321 48.189C2.83721 48.5001 3.24158 48.7956 3.65113 49.0756C3.8585 49.2207 4.06069 49.3658 4.26806 49.5006L4.90053 49.905C6.59515 50.9775 8.37807 51.9036 10.2299 52.6734C12.0906 53.4563 14.0116 54.0874 15.9741 54.5604L17.4568 54.8871C17.9493 54.9907 18.4521 55.0633 18.9498 55.1515C19.4475 55.2396 19.9556 55.2914 20.4584 55.3536L21.2153 55.4418C21.4642 55.4418 21.7338 55.4781 21.9722 55.4988C23.9968 55.6604 26.0318 55.6431 28.0533 55.447C30.07 55.2719 32.068 54.925 34.0256 54.4101C35.0002 54.125 35.9697 53.8606 36.908 53.4977C37.3798 53.3214 37.8567 53.1555 38.3181 52.9793L39.6919 52.3727L40.3763 52.0616L41.045 51.7195C41.4857 51.481 41.9263 51.2529 42.3618 51.0093C43.2276 50.4908 44.0623 49.9724 44.8814 49.4177C45.0071 49.3331 45.0989 49.2068 45.1406 49.0611C45.1823 48.9153 45.1711 48.7596 45.1091 48.6213C45.0471 48.483 44.9382 48.3711 44.8017 48.3053C44.6651 48.2394 44.5098 48.224 44.3629 48.2616L44.2852 48.2201Z" fill="url(#paint0_linear_3075_93)"/>
<path d="M48.4087 44.6676C46.5683 44.4032 42.3432 44.2684 40.3369 46.1607C40.2934 46.2053 40.2646 46.262 40.2542 46.3234C40.2439 46.3849 40.2526 46.448 40.2791 46.5043C40.3055 46.5607 40.3486 46.6076 40.4025 46.6389C40.4563 46.6701 40.5185 46.6841 40.5805 46.6791C42.3224 46.4666 46.3869 46.057 47.0194 46.8398C47.6518 47.6226 46.2936 51.4382 45.5885 53.1801C45.5643 53.2419 45.5608 53.3099 45.5785 53.3739C45.5963 53.4378 45.6344 53.4942 45.6871 53.5346C45.7398 53.575 45.8042 53.5972 45.8706 53.5978C45.937 53.5983 46.0017 53.5773 46.0551 53.5378C47.1645 52.7084 49.1345 50.1007 49.5596 46.0207C49.5855 45.6889 49.4789 45.3603 49.2633 45.1068C49.0476 44.8533 48.7404 44.6954 48.4087 44.6676Z" fill="url(#paint1_linear_3075_93)"/>
</g>
<defs>
<linearGradient id="paint0_linear_3075_93" x1="-0.00375506" y1="50.4908" x2="45.1043" y2="50.4908" gradientUnits="userSpaceOnUse">
<stop stop-color="#FAD12F"/>
<stop offset="1" stop-color="#F7993E"/>
</linearGradient>
<linearGradient id="paint1_linear_3075_93" x1="40.2384" y1="49.0638" x2="49.57" y2="49.0638" gradientUnits="userSpaceOnUse">
<stop stop-color="#F6A91C"/>
<stop offset="1" stop-color="#F7993E"/>
</linearGradient>
<clipPath id="clip0_3075_93">
<rect width="95.3485" height="56" fill="white"/>
</clipPath>
</defs>
</svg>
